<svg xmlns="http://www.w3.org/2000/svg" width="75.479" height="75.478" viewBox="0 0 75.479 75.478">
  <g id="canopy-logo-icon-blue" transform="translate(-3556.05 243.67)">
    <path id="Path_19" data-name="Path 19" d="M320.568,56.3a32.817,32.817,0,0,1-9.621,1.59,22.4,22.4,0,0,1-16.133-6.245,21.615,21.615,0,0,1-4.078-5.295c-.018.409-.036.826-.036,1.235a16.62,16.62,0,0,0,4.566,11.984,15.141,15.141,0,0,0,11.345,4.771h.2a15.089,15.089,0,0,0,11.336-4.771,16.167,16.167,0,0,0,2.416-3.278Z" transform="translate(3278.951 -249.962)" fill="#113b52"/>
    <path id="Path_20" data-name="Path 20" d="M299.741,44.351a16.429,16.429,0,0,0,3.82,2.727,33.7,33.7,0,0,1-1.812-10.332,22.4,22.4,0,0,1,6.245-16.133,22.025,22.025,0,0,1,4.637-3.7c-.3-.009-.6-.018-.906-.018a16.62,16.62,0,0,0-11.984,4.566,15.141,15.141,0,0,0-4.771,11.345v.2a15.122,15.122,0,0,0,4.771,11.336Z" transform="translate(3278.475 -246.676)" fill="#113b52"/>
    <path id="Path_21" data-name="Path 21" d="M338.6,50.884v-.213a15.089,15.089,0,0,0-4.771-11.336,16.258,16.258,0,0,0-3.856-2.745,33.552,33.552,0,0,1,1.777,10.2A22.4,22.4,0,0,1,325.5,62.922a21.809,21.809,0,0,1-4.851,3.829c.4.018.8.036,1.19.036a16.62,16.62,0,0,0,11.984-4.566A15.136,15.136,0,0,0,338.6,50.884Z" transform="translate(3275.609 -248.873)" fill="#113b52"/>
    <path id="Path_22" data-name="Path 22" d="M350.868,39a37.739,37.739,0,1,0-37.739,37.739A37.74,37.74,0,0,0,350.868,39ZM289.542,58.988A22.388,22.388,0,0,1,283.3,42.855a37.77,37.77,0,0,1,3.411-14.6.091.091,0,0,1,.044-.053A20.345,20.345,0,0,1,293.1,15.714a22.388,22.388,0,0,1,16.133-6.245,36.678,36.678,0,0,1,13.388,2.923,20.4,20.4,0,0,1,14.09,6.485,22.388,22.388,0,0,1,6.245,16.133,37.565,37.565,0,0,1-3.331,14.4,20.385,20.385,0,0,1-6.405,12.9,22.388,22.388,0,0,1-16.133,6.245,37.121,37.121,0,0,1-13.788-3.083,20.354,20.354,0,0,1-13.761-6.467Z" transform="translate(3280.66 -244.93)" fill="#113b52"/>
    <path id="Path_23" data-name="Path 23" d="M311.29,28.963a33.108,33.108,0,0,1,9.808-1.652,22.4,22.4,0,0,1,16.133,6.245,21.592,21.592,0,0,1,4.007,5.144c.018-.409.036-.826.036-1.235a16.62,16.62,0,0,0-4.566-11.984,15.141,15.141,0,0,0-11.345-4.771h-.2a15.09,15.09,0,0,0-11.336,4.771,15.92,15.92,0,0,0-2.532,3.482Z" transform="translate(3276.653 -247.101)" fill="#113b52"/>
    <path id="Path_24" data-name="Path 24" d="M309.32,42.786a7.6,7.6,0,1,0,7.6-7.6A7.6,7.6,0,0,0,309.32,42.786Z" transform="translate(3276.873 -248.717)" fill="#113b52"/>
  </g>
</svg>
